<?xml version="1.0" encoding="UTF-8"?>
<svg width="20px" height="18px" viewBox="0 0 20 18" version="1.1" xmlns="http://www.w3.org/2000/svg" xmlns:xlink="http://www.w3.org/1999/xlink">
    <!-- Generator: Sketch 51.2 (57519) - http://www.bohemiancoding.com/sketch -->
    <title>SMS survey</title>
    <desc>Created with Sketch.</desc>
    <defs>
        <polygon id="path-1" points="0.0485925926 0.657925926 9.17555556 0.657925926 9.17555556 9.6682963 0.0485925926 9.6682963"></polygon>
        <polygon id="path-3" points="0.000222222222 0.482888889 16.5728148 0.482888889 16.5728148 14.0740741 0.000222222222 14.0740741"></polygon>
    </defs>
    <g id="Final" stroke="none" stroke-width="1" fill="none" fill-rule="evenodd">
        <g id="Use-case-icons" transform="translate(-100.000000, -51.000000)">
            <g id="SMS-survey" transform="translate(100.000000, 51.000000)">
                <g id="Group-3" transform="translate(10.370370, 0.082889)">
                    <mask id="mask-2" fill="white">
                        <use xlink:href="#path-1"></use>
                    </mask>
                    <g id="Clip-2"></g>
                    <path d="M8.77525926,9.6682963 L0.448592593,9.6682963 C0.227851852,9.6682963 0.0485925926,9.48977778 0.0485925926,9.2682963 L0.0485925926,1.05792593 C0.0485925926,0.837185185 0.227851852,0.657925926 0.448592593,0.657925926 L8.77525926,0.657925926 C8.99674074,0.657925926 9.176,0.837185185 9.176,1.05792593 L9.176,9.2682963 C9.176,9.48977778 8.99674074,9.6682963 8.77525926,9.6682963" id="Fill-1" fill="#6CC16F" mask="url(#mask-2)"></path>
                </g>
                <path d="M14.4168889,7.46748148 C14.3902222,7.43044444 14.3776296,7.40896296 14.3613333,7.39192593 C14.1013333,7.13192593 13.8420741,6.87192593 13.5813333,6.61340741 C13.4665185,6.49785185 13.345037,6.49859259 13.2287407,6.61414815 C13.110963,6.73044444 12.9939259,6.84748148 12.8776296,6.96525926 C12.7724444,7.07192593 12.7731852,7.19637037 12.8791111,7.30155556 C13.3331852,7.75785185 13.788,8.21266667 14.2435556,8.66674074 C14.3554074,8.77933333 14.4791111,8.77933333 14.590963,8.66748148 C15.4213333,7.83785185 16.2517037,7.00748148 17.0813333,6.17785185 C17.1931852,6.06451852 17.1931852,5.94155556 17.0828148,5.8297037 C16.9724444,5.71933333 16.8628148,5.60896296 16.750963,5.49933333 C16.6124444,5.36081481 16.5035556,5.36155556 16.3642963,5.5022963 C15.7354074,6.1297037 15.108,6.75785185 14.4798519,7.38674074 C14.4620741,7.40525926 14.4472593,7.42748148 14.4168889,7.46748148" id="Fill-4" fill="#ABEAAE"></path>
                <path d="M14.4168889,3.81222222 C14.3902222,3.77518519 14.3776296,3.7537037 14.3613333,3.73666667 C14.1013333,3.47666667 13.8420741,3.21666667 13.5813333,2.95814815 C13.4665185,2.84259259 13.345037,2.84333333 13.2287407,2.95888889 C13.110963,3.07518519 12.9939259,3.19148148 12.8776296,3.31 C12.7724444,3.41666667 12.7731852,3.54111111 12.8791111,3.6462963 C13.3331852,4.10259259 13.788,4.55740741 14.2435556,5.01148148 C14.3554074,5.12407407 14.4791111,5.12407407 14.590963,5.01222222 C15.4213333,4.18259259 16.2517037,3.35222222 17.0813333,2.52185185 C17.1931852,2.40925926 17.1931852,2.2862963 17.0828148,2.17444444 C16.9724444,2.06407407 16.8628148,1.9537037 16.750963,1.84407407 C16.6124444,1.70555556 16.5035556,1.7062963 16.3642963,1.84703704 C15.7354074,2.47444444 15.108,3.10259259 14.4798519,3.73148148 C14.4620741,3.74925926 14.4472593,3.77222222 14.4168889,3.81222222" id="Fill-6" fill="#ABEAAE"></path>
                <g id="Group-10" transform="translate(0.000000, 3.786593)">
                    <mask id="mask-4" fill="white">
                        <use xlink:href="#path-3"></use>
                    </mask>
                    <g id="Clip-9"></g>
                    <path d="M10.7587407,6.74511111 C10.1291111,6.74511111 9.61725926,6.234 9.61725926,5.60437037 L9.61725926,0.482888889 L0.536518519,0.482888889 C0.240222222,0.482888889 0.000222222222,0.722888889 0.000222222222,1.01918519 L0.000222222222,10.7391852 C0.000222222222,11.0354815 0.240222222,11.2747407 0.536518519,11.2747407 L6.98392593,11.2747407 L6.98392593,13.536963 C6.98392593,13.9717778 7.47355556,14.2258519 7.82911111,13.9754815 L11.6646667,11.2747407 L16.0365185,11.2747407 C16.3320741,11.2747407 16.5728148,11.0354815 16.5728148,10.7391852 L16.5728148,6.74511111 L10.7587407,6.74511111 Z" id="Fill-8" fill="#ABEAAE" mask="url(#mask-4)"></path>
                </g>
            </g>
        </g>
    </g>
</svg>