<svg id="Layer_1" data-name="Layer 1" xmlns="http://www.w3.org/2000/svg" viewBox="0 0 200 200"><defs><style>.cls-1{fill:none;stroke-width:2.23px;}.cls-1,.cls-2{stroke:#434343;stroke-linecap:round;stroke-linejoin:round;}.cls-2{fill:#43a047;stroke-width:2px;}</style></defs><title>2 Factor Authentication</title><path class="cls-1" d="M97,146.27l-9.91,23.37a6.08,6.08,0,0,1-8,3.23L10.3,143.7a6.08,6.08,0,0,1-3.23-8l24-56.58a6.08,6.08,0,0,1,8-3.23L91.35,98.09"/><path class="cls-1" d="M45.65,78.71,59.92,45.06a30.18,30.18,0,0,1,39.57-16h0a30.18,30.18,0,0,1,16,39.57L110,82.39"/><path class="cls-1" d="M90.76,92.24l-2,4.75L58.14,84,72.89,49.2a16.62,16.62,0,0,1,21.79-8.81h0a16.62,16.62,0,0,1,8.81,21.79l-.81,1.9"/><path class="cls-1" d="M63.83,128a5.8,5.8,0,1,0-9.93,1.28h0l-7.16,16.88L52,148.42l7.16-16.88h0A5.8,5.8,0,0,0,63.83,128Z"/><path class="cls-1" d="M84.64,44.75a30.1,30.1,0,0,0-.13,23.87L98.25,101"/><path class="cls-1" d="M154.35,78.71,140.08,45.06A30.19,30.19,0,0,0,110,26.74"/><path class="cls-1" d="M96.11,50.21a16.56,16.56,0,0,0,.39,12L111.26,97l30.61-13L127.11,49.2a16.55,16.55,0,0,0-7.24-8"/><path class="cls-2" d="M192.93,135.72l-24-56.58a6.08,6.08,0,0,0-8-3.23l-68.8,29.17a6.08,6.08,0,0,0-3.23,8l24,56.58a6.08,6.08,0,0,0,8,3.23l68.8-29.17A6.08,6.08,0,0,0,192.93,135.72ZM148,148.42l-7.16-16.88h0a5.8,5.8,0,1,1,5.23-2.22h0l7.16,16.88Z"/></svg>