<svg id="Layer_1" data-name="Layer 1" xmlns="http://www.w3.org/2000/svg" viewBox="0 0 100 100"><defs><style>.cls-1,.cls-2{fill:none;stroke:#fff;stroke-miterlimit:10;stroke-width:4px;}.cls-2{stroke-linecap:round;}</style></defs><title>2 Factor Authentication-100x0100</title><rect class="cls-1" x="22.88" y="2.68" width="54.24" height="94.63" rx="4.43" ry="4.43"/><line class="cls-2" x1="45.99" y1="8.91" x2="54.01" y2="8.91"/><circle class="cls-1" cx="50" cy="88.44" r="2.95"/><path class="cls-1" d="M55.78,23.91A11.47,11.47,0,0,0,44.07,43.65l.6.33-.35,6.18,1.77,0v2.16l3.21,3.82-1.81,2L49,60.32l-1.45,2.45,1.68,1.89L47.33,67,49,69l-2.41,2.77v1.52L50,77.48l3.75-2.24.14-25.78,2-.5-.53-5.06a11.48,11.48,0,0,0,.47-20Zm-2.9,9.22a3.52,3.52,0,1,1-1.23-4.83A3.52,3.52,0,0,1,52.88,33.13Z"/></svg>