<svg id="Layer_1" data-name="Layer 1" xmlns="http://www.w3.org/2000/svg" viewBox="0 0 200 200"><defs><style>.cls-1{fill:#43a047;}.cls-1,.cls-2{stroke:#434343;stroke-miterlimit:10;stroke-width:2px;}.cls-2{fill:none;}</style></defs><title>Call Tracking</title><g id="RAIMe9.tif"><path class="cls-1" d="M156.84,62.85c-.1,8.21-2.77,15.73-5.92,23.08-8.23,19.18-19.41,36.68-31.15,53.85-3.74,5.47-7.54,10.9-11.51,16.19-4.25,5.66-12.2,5.86-16.37.17-15.71-21.47-30.7-43.42-41.74-67.76-3.9-8.6-7.06-17.43-6.79-27.19C44.07,35.48,64.61,11.94,90,8c31.73-5,59.52,14.33,65.73,45.71C156.35,56.69,156.49,59.79,156.84,62.85ZM100.15,104.3c22.83,0,41.78-18.85,41.77-41.62,0-23.13-19-42.11-42.05-41.94a41.78,41.78,0,1,0,.29,83.56Z"/><path class="cls-2" d="M138.16,127.34c12,3.37,23.51,7.37,32.41,16.58a21,21,0,0,1,5.68,10.26c1.21,5.61-.34,10.59-3.66,15.09a38,38,0,0,1-12.16,10.3c-9.9,5.64-20.67,8.72-31.79,10.71A161.65,161.65,0,0,1,83,191.89c-15.14-1.6-29.89-4.73-43.34-12.32a37.61,37.61,0,0,1-12.3-10.44c-5.37-7.37-5.3-15.7.21-23,4.5-5.92,10.54-9.87,17.23-12.77,5.45-2.37,11.12-4.24,16.88-6.4"/></g><g id="iiRI5x.tif"><path class="cls-2" d="M89,37a5.71,5.71,0,0,1,.73.19,3,3,0,0,1,2,2.61,4,4,0,0,1,0,.46q0,5.95,0,11.89a.37.37,0,0,1-.11.28L87.23,57l-1.91,2,0,.05.77,1.1a86.83,86.83,0,0,0,6.67,8.26,59.83,59.83,0,0,0,4.54,4.48,34.22,34.22,0,0,0,6,4.35l.48.26.06,0,.1-.12,6.24-6.25a.32.32,0,0,1,.25-.11h11.78a3.08,3.08,0,0,1,3,2,2.94,2.94,0,0,1,.2,1.08q0,5.51,0,11a3,3,0,0,1-3.22,3c-.94-.08-1.89-.2-2.82-.36-1.52-.25-3-.51-4.53-.82a65.09,65.09,0,0,1-7-1.86,57,57,0,0,1-7.25-2.87,41.8,41.8,0,0,1-8.37-5.24,32.66,32.66,0,0,1-5.49-5.74,64.41,64.41,0,0,1-4.06-6.07,61.59,61.59,0,0,1-4.21-8.65,52.58,52.58,0,0,1-2.22-7.06,45.39,45.39,0,0,1-.9-5c-.15-1.21-.25-2.43-.29-3.65a.43.43,0,0,0,0-.09v-.85c0-.09,0-.17.05-.26a3.07,3.07,0,0,1,2.36-2.51l.36-.08Z"/></g></svg>