<svg id="Layer_1" data-name="Layer 1" xmlns="http://www.w3.org/2000/svg" viewBox="0 0 100 100"><defs><style>.cls-1{fill:none;stroke:#fff;stroke-linejoin:round;stroke-width:4px;}</style></defs><title>Call Tracking-100x0100</title><g id="RAIMe9.tif"><path class="cls-1" d="M78.92,31.1c0,4.18-1.41,8-3,11.74C71.72,52.6,66,61.5,60.06,70.23c-1.9,2.78-3.84,5.54-5.86,8.24a5.08,5.08,0,0,1-8.33.08c-8-10.92-15.62-22.09-21.23-34.47-2-4.38-3.59-8.87-3.46-13.83C21.55,17.18,32,5.2,44.93,3.18,61.07.66,75.2,10.47,78.37,26.44,78.67,28,78.74,29.55,78.92,31.1ZM50.08,53A22.08,22.08,0,1,0,27.85,30.89,22.17,22.17,0,0,0,50.08,53Z"/><path class="cls-1" d="M69.41,63.91c6.09,1.71,12,3.75,16.49,8.43a10.7,10.7,0,0,1,2.89,5.22,9.21,9.21,0,0,1-1.86,7.68,19.33,19.33,0,0,1-6.19,5.24,49.91,49.91,0,0,1-16.17,5.45,82.24,82.24,0,0,1-23.23.83c-7.7-.81-15.2-2.4-22-6.27A19.13,19.13,0,0,1,13,85.17a9.25,9.25,0,0,1,.11-11.68A21.28,21.28,0,0,1,21.9,67c2.77-1.2,5.66-2.16,8.59-3.26"/></g><g id="iiRI5x.tif"><path class="cls-1" d="M50,39.41l1.67-1.89,2.77-2.77a.14.14,0,0,1,.11,0h5.23a1.37,1.37,0,0,1,1.32.88,1.31,1.31,0,0,1,.09.48q0,2.45,0,4.89a1.34,1.34,0,0,1-1.43,1.33c-.42,0-.84-.09-1.25-.16-.67-.11-1.34-.23-2-.36a28.88,28.88,0,0,1-3.12-.83,25.3,25.3,0,0,1-3.22-1.27,18.54,18.54,0,0,1-3.71-2.33,14.49,14.49,0,0,1-2.44-2.54,28.57,28.57,0,0,1-1.8-2.69,27.32,27.32,0,0,1-1.87-3.84,23.32,23.32,0,0,1-1-3.13,20.13,20.13,0,0,1-.4-2.2c-.07-.54-.11-1.08-.13-1.62a.19.19,0,0,0,0,0v-.38l0-.11a1.36,1.36,0,0,1,1-1.11l.16,0h5a2.53,2.53,0,0,1,.32.08,1.33,1.33,0,0,1,.88,1.16,1.77,1.77,0,0,1,0,.21q0,2.64,0,5.27a.16.16,0,0,1-.05.12l-2,2-.85.88L42,31"/></g></svg>