<?xml version="1.0" encoding="UTF-8"?>
<svg width="36px" height="38px" viewBox="0 0 36 38" version="1.1" xmlns="http://www.w3.org/2000/svg" xmlns:xlink="http://www.w3.org/1999/xlink">
    <!-- Generator: Sketch 51.2 (57519) - http://www.bohemiancoding.com/sketch -->
    <title>Conference Copy</title>
    <desc>Created with Sketch.</desc>
    <defs>
        <polygon id="path-1" points="0.66736 1.57312 34.56816 1.57312 34.56816 35.2 0.66736 35.2"></polygon>
        <polygon id="path-3" points="0.81456 1.2592 9.48016 1.2592 9.48016 9.92208 0.81456 9.92208"></polygon>
    </defs>
    <g id="Final" stroke="none" stroke-width="1" fill="none" fill-rule="evenodd">
        <g id="Conference-Copy" transform="translate(0.000000, -1.000000)">
            <g id="Group-3" transform="translate(0.000000, 3.541440)">
                <mask id="mask-2" fill="white">
                    <use xlink:href="#path-1"></use>
                </mask>
                <g id="Clip-2"></g>
                <path d="M17.61776,35.20032 C8.27056,35.20032 0.66736,27.65792 0.66736,18.38752 C0.66736,9.11552 8.27056,1.57312 17.61776,1.57312 C26.96496,1.57312 34.56816,9.11552 34.56816,18.38752 C34.56816,27.65792 26.96496,35.20032 17.61776,35.20032" id="Fill-1" fill="#ABEAAE" mask="url(#mask-2)"></path>
            </g>
            <path d="M20.9928,29.47616 C20.692,29.47616 20.3912,29.40576 20.1208,29.27456 C18.5416,28.50816 16.1576,27.09216 13.764,24.70016 C11.3736,22.30976 9.9576,19.92416 9.1896,18.34496 C8.8168,17.57536 8.9736,16.64896 9.5832,16.04256 L11.2536,14.38176 L14.6744,17.82336 L13.0296,19.48736 L13.0648,19.56576 C13.0936,19.62816 13.7768,21.14016 15.5096,22.87136 C17.2424,24.60576 18.7384,25.27296 18.8008,25.30176 L18.8776,25.33376 L20.5736,23.69056 L24.0904,27.21056 L22.4264,28.88096 C22.0408,29.26336 21.532,29.47616 20.9928,29.47616" id="Fill-4" fill="#6CC16F"></path>
            <g id="Group-8" transform="translate(12.800000, 0.341440)">
                <mask id="mask-4" fill="white">
                    <use xlink:href="#path-3"></use>
                </mask>
                <g id="Clip-7"></g>
                <path d="M9.48016,5.59088 C9.48016,7.98288 7.53936,9.92208 5.14736,9.92208 C2.75536,9.92208 0.81456,7.98288 0.81456,5.59088 C0.81456,3.19888 2.75536,1.25808 5.14736,1.25808 C7.53936,1.25808 9.48016,3.19888 9.48016,5.59088" id="Fill-6" fill="#6CC16F" mask="url(#mask-4)"></path>
            </g>
            <path d="M35.5568,32.012 C35.5568,34.4056 33.6176,36.3448 31.2256,36.3448 C28.8336,36.3448 26.8928,34.4056 26.8928,32.012 C26.8928,29.62 28.8336,27.6808 31.2256,27.6808 C33.6176,27.6808 35.5568,29.62 35.5568,32.012" id="Fill-9" fill="#6CC16F"></path>
            <path d="M8.66464,32.22768 C8.66464,34.61968 6.72544,36.56048 4.33184,36.56048 C1.93984,36.56048 0.00064,34.61968 0.00064,32.22768 C0.00064,29.83568 1.93984,27.89488 4.33184,27.89488 C6.72544,27.89488 8.66464,29.83568 8.66464,32.22768" id="Fill-11" fill="#6CC16F"></path>
        </g>
    </g>
</svg>