<svg id="Layer_1" data-name="Layer 1" xmlns="http://www.w3.org/2000/svg" viewBox="0 0 200 200"><defs><style>.cls-1{fill:none;stroke:#444;stroke-linecap:round;stroke-linejoin:round;stroke-width:2.23px;}.cls-2{fill:#43a047;stroke:#434343;stroke-miterlimit:10;stroke-width:2px;}</style></defs><title>IVRS Systems</title><g id="iiRI5x.tif"><path class="cls-1" d="M57.1,17.72a19.23,19.23,0,0,1,2.45.63,10.12,10.12,0,0,1,6.7,8.79,13.45,13.45,0,0,1,.06,1.56q0,20,0,40.06a1.23,1.23,0,0,1-.39.94L51.13,85l-6.44,6.67-.15.17c.86,1.23,1.7,2.47,2.58,3.7a292.52,292.52,0,0,0,22.46,27.83,201.57,201.57,0,0,0,15.28,15.11A115.27,115.27,0,0,0,105,153.1c.53.3,1.08.58,1.62.87l.2.07a4.49,4.49,0,0,1,.32-.39l21-21a1.09,1.09,0,0,1,.86-.35h39.7a10.38,10.38,0,0,1,10,6.67,9.91,9.91,0,0,1,.68,3.63q0,18.57,0,37.14a10.17,10.17,0,0,1-10.86,10.08c-3.18-.27-6.35-.69-9.5-1.21-5.1-.84-10.2-1.73-15.27-2.75a219.28,219.28,0,0,1-23.73-6.27,192.09,192.09,0,0,1-24.42-9.68A140.81,140.81,0,0,1,67.45,152.2a110,110,0,0,1-18.51-19.32,217,217,0,0,1-13.67-20.46A207.5,207.5,0,0,1,21.09,83.29,177.12,177.12,0,0,1,13.6,59.51a152.9,152.9,0,0,1-3-16.72c-.5-4.09-.86-8.19-1-12.31a1.44,1.44,0,0,0-.07-.29V27.31c.06-.29.12-.58.17-.87A10.34,10.34,0,0,1,17.63,18l1.21-.26Z"/></g><line class="cls-1" x1="80" y1="32.49" x2="144.17" y2="32.49"/><circle class="cls-2" cx="156.39" cy="32.49" r="12.02"/><line class="cls-1" x1="110" y1="68.55" x2="144.17" y2="68.55"/><circle class="cls-1" cx="156.39" cy="68.55" r="12.02"/><line class="cls-1" x1="110" y1="104.61" x2="144.17" y2="104.61"/><circle class="cls-1" cx="156.39" cy="104.61" r="12.02"/><line class="cls-1" x1="110" y1="32.49" x2="110" y2="103.77"/></svg>