<svg id="Layer_1" data-name="Layer 1" xmlns="http://www.w3.org/2000/svg" viewBox="0 0 100 100"><defs><style>.cls-1{fill:none;stroke:#fff;stroke-linecap:round;stroke-linejoin:round;stroke-width:4px;}</style></defs><title>IVRS Systems-100x0100</title><g id="iiRI5x.tif"><path class="cls-1" d="M29.22,2.15a10.7,10.7,0,0,1,1.36.35A5.63,5.63,0,0,1,34.3,7.39a7.48,7.48,0,0,1,0,.87q0,11.14,0,22.28a.69.69,0,0,1-.22.52L25.9,39.55l-3.58,3.71-.08.09c.48.68.95,1.38,1.43,2.06A162.68,162.68,0,0,0,36.15,60.89a112.1,112.1,0,0,0,8.5,8.4,64.11,64.11,0,0,0,11.23,8.14l.9.48.11,0a2.5,2.5,0,0,1,.18-.22L68.76,66a.61.61,0,0,1,.48-.2H91.31a5.77,5.77,0,0,1,5.55,3.71,5.51,5.51,0,0,1,.38,2q0,10.33,0,20.66a5.66,5.66,0,0,1-6,5.61c-1.77-.15-3.53-.38-5.28-.67-2.84-.47-5.68-1-8.49-1.53a122,122,0,0,1-13.2-3.49,106.83,106.83,0,0,1-13.58-5.38A78.31,78.31,0,0,1,35,76.93,61.19,61.19,0,0,1,24.68,66.19a120.67,120.67,0,0,1-7.6-11.38,115.4,115.4,0,0,1-7.89-16.2A98.5,98.5,0,0,1,5,25.38a85,85,0,0,1-1.68-9.3c-.28-2.27-.48-4.56-.55-6.85a.8.8,0,0,0,0-.16V7.48c0-.16.07-.32.09-.48A5.75,5.75,0,0,1,7.26,2.29l.67-.14Z"/></g><line class="cls-1" x1="41.95" y1="10.36" x2="77.64" y2="10.36"/><circle class="cls-1" cx="84.43" cy="10.36" r="6.69"/><line class="cls-1" x1="58.63" y1="30.41" x2="77.64" y2="30.41"/><circle class="cls-1" cx="84.43" cy="30.41" r="6.69"/><line class="cls-1" x1="58.63" y1="50.47" x2="77.64" y2="50.47"/><circle class="cls-1" cx="84.43" cy="50.47" r="6.69"/><line class="cls-1" x1="58.63" y1="10.36" x2="58.63" y2="50"/></svg>