<svg id="Layer_1" data-name="Layer 1" xmlns="http://www.w3.org/2000/svg" viewBox="0 0 200 200"><defs><style>.cls-1,.cls-2{fill:none;}.cls-1,.cls-2,.cls-3{stroke:#434343;stroke-miterlimit:10;stroke-width:2px;}.cls-2{stroke-linecap:round;}.cls-3{fill:#43a047;}</style></defs><title>Number Masking</title><path class="cls-1" d="M151.33,108.65v71a8.23,8.23,0,0,1-8.23,8.23H58.8a8.23,8.23,0,0,1-8.23-8.23V20.32a8.23,8.23,0,0,1,8.23-8.23h84.3a8.23,8.23,0,0,1,8.23,8.23V40.38"/><line class="cls-1" x1="151.33" y1="66.54" x2="151.33" y2="78.33"/><line class="cls-2" x1="93.5" y1="23.66" x2="108.4" y2="23.66"/><circle class="cls-2" cx="100.95" cy="175.13" r="5.49"/><path class="cls-2" d="M108,68.73a7.62,7.62,0,0,1-14.11.19"/><path class="cls-2" d="M77.32,95.49A7.62,7.62,0,0,1,67,85.69"/><path class="cls-2" d="M130.69,95.75A7.62,7.62,0,0,1,122,93.48"/><circle class="cls-2" cx="73.97" cy="111.35" r="7.61"/><circle class="cls-2" cx="100.95" cy="111.35" r="7.61"/><circle class="cls-2" cx="127.93" cy="111.35" r="7.61"/><circle class="cls-2" cx="100.95" cy="134.05" r="7.61"/><path class="cls-3" d="M150.17,99.85a22.89,22.89,0,0,1-14.92-5.54,36.79,36.79,0,0,0-4.32-3.37,11.4,11.4,0,0,0-13,0,22.26,22.26,0,0,0-3.18,2.44c-7.67,7-16.49,7.8-25.81,4.37C78.82,94,72.19,86.46,67.73,76.84a33.93,33.93,0,0,1-3.21-13.43,11.91,11.91,0,0,1,6-11A27.62,27.62,0,0,1,82,48.63a73.74,73.74,0,0,1,32.2,3.13c2.45.8,4.84,1.81,7.34,2.39a15.4,15.4,0,0,0,9.71-.91,58,58,0,0,1,18-4.29,65.41,65.41,0,0,1,21.8,1.2,23.89,23.89,0,0,1,8.41,3.63,11.08,11.08,0,0,1,4.92,9.7c-.23,15.95-11.9,31.32-26.86,35.16C155.13,99.25,152.62,99.46,150.17,99.85ZM100.88,61.06a18.25,18.25,0,0,0-10.58,3.15c-5.91,4.18-5.9,11,0,15.2s15.29,4.17,21.18,0,5.9-11,0-15.21A18.27,18.27,0,0,0,100.88,61.06Zm48.25,0c-5.14,0-8.91,1.1-11.77,3.15-5.84,4.19-5.84,10.95,0,15.13s15.38,4.24,21.28,0,5.85-10.95,0-15.13A17.3,17.3,0,0,0,149.14,61.08Z"/><path class="cls-3" d="M175.81,95V96.8q0,22,0,44c0,3.33-2.79,5.44-5.71,4.38a4.28,4.28,0,0,1-2.8-4.28q0-10.56,0-21.12c0-5.84,0-11.68,0-17.51a1.72,1.72,0,0,1,.86-1.6C170.7,98.82,173.2,96.9,175.81,95Z"/></svg>