<svg id="Layer_1" data-name="Layer 1" xmlns="http://www.w3.org/2000/svg" viewBox="0 0 100 100"><defs><style>.cls-1,.cls-2{fill:none;stroke:#fff;stroke-miterlimit:10;stroke-width:4px;}.cls-2{stroke-linecap:round;}</style></defs><title>Number Masking-100x0100</title><path class="cls-1" d="M68.22,54.65V92.87a4.43,4.43,0,0,1-4.43,4.43H18.43A4.43,4.43,0,0,1,14,92.87V7.13A4.43,4.43,0,0,1,18.43,2.7H63.79a4.43,4.43,0,0,1,4.43,4.43V17.92"/><line class="cls-1" x1="68.22" y1="33" x2="68.22" y2="37.34"/><line class="cls-2" x1="37.1" y1="8.92" x2="45.11" y2="8.92"/><circle class="cls-2" cx="41.11" cy="88.42" r="2.95"/><circle class="cls-2" cx="26.59" cy="59.11" r="4.1"/><circle class="cls-2" cx="41.11" cy="59.11" r="4.1"/><circle class="cls-2" cx="55.62" cy="59.11" r="4.1"/><circle class="cls-2" cx="41.11" cy="73.32" r="4.1"/><path class="cls-1" d="M67.59,49.92a12.32,12.32,0,0,1-8-3,19.79,19.79,0,0,0-2.33-1.81,6.13,6.13,0,0,0-7,0,12,12,0,0,0-1.71,1.31c-4.13,3.77-8.87,4.2-13.89,2.35-5.46-2-9-6.08-11.43-11.26a18.26,18.26,0,0,1-1.73-7.22,6.41,6.41,0,0,1,3.24-5.94,14.86,14.86,0,0,1,6.18-2A39.67,39.67,0,0,1,48.25,24c1.32.43,2.61,1,3.95,1.29a8.29,8.29,0,0,0,5.22-.49,31.18,31.18,0,0,1,9.68-2.31,35.19,35.19,0,0,1,11.73.65,12.85,12.85,0,0,1,4.53,2A6,6,0,0,1,86,30.35c-.12,8.58-6.4,16.85-14.45,18.92C70.26,49.6,68.91,49.71,67.59,49.92ZM41.07,29.05a9.82,9.82,0,0,0-5.69,1.69c-3.18,2.25-3.17,5.93,0,8.18a10.47,10.47,0,0,0,11.39,0C50,36.67,50,33,46.77,30.74A9.83,9.83,0,0,0,41.07,29.05Zm26,0a10.48,10.48,0,0,0-6.33,1.7c-3.14,2.25-3.14,5.89,0,8.14a10.46,10.46,0,0,0,11.45,0c3.14-2.25,3.15-5.89,0-8.14A9.31,9.31,0,0,0,67,29.06Z"/><line class="cls-2" x1="77.49" y1="53.01" x2="77.49" y2="79.85"/></svg>