<?xml version="1.0" encoding="UTF-8"?>
<svg width="38px" height="38px" viewBox="0 0 38 38" version="1.1" xmlns="http://www.w3.org/2000/svg" xmlns:xlink="http://www.w3.org/1999/xlink">
    <!-- Generator: Sketch 51.2 (57519) - http://www.bohemiancoding.com/sketch -->
    <title>SMS Alert Copy</title>
    <desc>Created with Sketch.</desc>
    <defs>
        <polygon id="path-1" points="0.989833333 0.975433626 19.1316667 0.975433626 19.1316667 20.1463333 0.989833333 20.1463333"></polygon>
        <polygon id="path-3" points="0.000166666667 0.467666667 31.9451667 0.467666667 31.9451667 26.6666667 0.000166666667 26.6666667"></polygon>
    </defs>
    <g id="Final" stroke="none" stroke-width="1" fill="none" fill-rule="evenodd">
        <g id="SMS-Alert-Copy" transform="translate(0.000000, -1.000000)">
            <path d="M29.8015,22.9076667 C31.6248333,22.4076667 32.7415,20.606 32.4215,18.7793333 L25.4448333,20.691 C26.0981667,22.4243333 27.9781667,23.406 29.8015,22.9076667" id="Fill-1" fill="#6CC16F"></path>
            <g id="Group-5" transform="translate(18.333333, 0.691500)">
                <mask id="mask-2" fill="white">
                    <use xlink:href="#path-1"></use>
                </mask>
                <g id="Clip-4"></g>
                <path d="M6.26316667,3.808 C5.73983333,3.95133333 5.1965,3.64133333 5.0515,3.11633333 C4.90983333,2.593 5.21816667,2.04966667 5.74316667,1.90633333 C6.26816667,1.76133333 6.80983333,2.07133333 6.95316667,2.59633333 C7.09816667,3.12133333 6.78816667,3.663 6.26316667,3.808 Z M18.7848333,14.0046667 C15.5665,13.9163333 14.9031667,9.003 14.9031667,9.003 C14.1765,5.43466667 12.3915,3.62633333 12.3915,3.62633333 C10.6531667,2.278 8.95316667,1.94633333 7.73816667,1.93133333 C7.30983333,1.19633333 6.42816667,0.808 5.56983333,1.04466667 C4.6865,1.28466667 4.11816667,2.10466667 4.15483333,2.98133333 C3.15316667,3.63466667 1.96483333,4.76633333 1.2065,6.68966667 C1.2065,6.68966667 0.589833333,9.153 1.78316667,12.5946667 C1.78316667,12.5946667 3.7165,17.163 0.989833333,18.878 L1.33816667,20.1463333 L19.1331667,15.2746667 L18.7848333,14.0046667 Z" id="Fill-3" fill="#6CC16F" mask="url(#mask-2)"></path>
            </g>
            <g id="Group-8" transform="translate(0.000000, 12.358167)">
                <mask id="mask-4" fill="white">
                    <use xlink:href="#path-3"></use>
                </mask>
                <g id="Clip-7"></g>
                <path d="M30.2068333,12.1576667 C29.7485,12.2826667 29.2768333,12.346 28.8051667,12.346 C26.6585,12.3443333 24.7101667,11.0193333 23.9051667,9.03933333 L18.4701667,10.526 L17.3518333,6.45933333 L18.4001667,5.801 C19.6518333,5.01266667 18.8318333,2.266 18.5435,1.57266667 C18.4118333,1.191 18.3118333,0.827666667 18.2168333,0.467666667 L1.0335,0.467666667 C0.461833333,0.467666667 0.000166666667,0.931 0.000166666667,1.501 L0.000166666667,20.2393333 C0.000166666667,20.8093333 0.461833333,21.2726667 1.0335,21.2726667 L13.4635,21.2726667 L13.4635,25.6326667 C13.4635,26.4693333 14.4068333,26.9593333 15.0918333,26.4776667 L22.4851667,21.2726667 L30.9135,21.2726667 C31.4835,21.2726667 31.9451667,20.8093333 31.9451667,20.2393333 L31.9451667,11.3193333 C31.4368333,11.6926667 30.8535,11.981 30.2068333,12.1576667" id="Fill-6" fill="#ABEAAE" mask="url(#mask-4)"></path>
            </g>
        </g>
    </g>
</svg>