<svg id="Layer_1" data-name="Layer 1" xmlns="http://www.w3.org/2000/svg" viewBox="0 0 200 200"><defs><style>.cls-1{fill:none;stroke-linecap:round;stroke-linejoin:round;stroke-width:2.23px;}.cls-1,.cls-2{stroke:#434343;}.cls-2{fill:#43a047;stroke-miterlimit:10;stroke-width:2px;}</style></defs><title>Voice OTP</title><g id="iiRI5x.tif"><path class="cls-1" d="M62.63,14a19.23,19.23,0,0,1,2.45.63,10.12,10.12,0,0,1,6.7,8.79,13.45,13.45,0,0,1,.06,1.56q0,20,0,40.06a1.23,1.23,0,0,1-.39.94L56.66,81.21l-6.44,6.67-.15.17c.86,1.23,1.7,2.47,2.58,3.7A292.52,292.52,0,0,0,75.1,119.58a201.57,201.57,0,0,0,15.28,15.11,115.27,115.27,0,0,0,20.18,14.64c.53.3,1.08.58,1.62.87l.2.07a4.49,4.49,0,0,1,.32-.39l21-21a1.09,1.09,0,0,1,.86-.35h39.7a10.38,10.38,0,0,1,10,6.67,9.91,9.91,0,0,1,.68,3.63q0,18.57,0,37.14A10.17,10.17,0,0,1,174.09,186c-3.18-.27-6.35-.69-9.5-1.21-5.1-.84-10.2-1.73-15.27-2.75a219.28,219.28,0,0,1-23.73-6.27,192.09,192.09,0,0,1-24.42-9.68A140.81,140.81,0,0,1,73,148.43a110,110,0,0,1-18.51-19.32A217,217,0,0,1,40.8,108.65,207.5,207.5,0,0,1,26.62,79.52a177.12,177.12,0,0,1-7.49-23.78A152.9,152.9,0,0,1,16.1,39c-.5-4.09-.86-8.19-1-12.31a1.44,1.44,0,0,0-.07-.29V23.54c.06-.29.12-.58.17-.87a10.34,10.34,0,0,1,7.94-8.47L24.36,14Z"/></g><path class="cls-2" d="M154.09,60.23,157,57.36l-6.13-8.24a23.14,23.14,0,1,0-19.77,11.11c.46,0,.92,0,1.37,0l5.75,11.09,3.09-1.77,2.21,3.76,9.5,3.32-1.1,5.3,4.86,2.21v5.74l4.86,1.55-.88,6,4.86,1.77-1.33,7.29,1.55,2.65,10.38,3.76,4.2-7.73ZM126.83,37.38a7.1,7.1,0,1,1,7.1-7.1A7.1,7.1,0,0,1,126.83,37.38Z"/></svg>