<svg id="Layer_1" data-name="Layer 1" xmlns="http://www.w3.org/2000/svg" viewBox="0 0 100 100"><defs><style>.cls-1{fill:none;stroke:#fff;stroke-linejoin:round;stroke-width:4px;}</style></defs><title>Voice OTP-100x0100</title><g id="iiRI5x.tif"><path class="cls-1" d="M29.5,2.79a10.55,10.55,0,0,1,1.35.35A5.55,5.55,0,0,1,34.52,8a7.38,7.38,0,0,1,0,.86q0,11,0,22a.68.68,0,0,1-.21.51l-8.13,8.38-3.53,3.66-.08.09c.47.68.94,1.36,1.41,2A160.49,160.49,0,0,0,36.34,60.74,110.59,110.59,0,0,0,44.72,69a63.24,63.24,0,0,0,11.07,8l.89.48.11,0a2.46,2.46,0,0,1,.18-.22L68.51,65.82a.6.6,0,0,1,.47-.19H90.76a5.69,5.69,0,0,1,5.48,3.66,5.44,5.44,0,0,1,.37,2q0,10.19,0,20.38a5.58,5.58,0,0,1-6,5.53c-1.74-.15-3.48-.38-5.21-.66-2.8-.46-5.6-.95-8.38-1.51a120.31,120.31,0,0,1-13-3.44,105.39,105.39,0,0,1-13.4-5.31,77.26,77.26,0,0,1-15.47-9.69A60.37,60.37,0,0,1,25,66a119.05,119.05,0,0,1-7.5-11.23,113.85,113.85,0,0,1-7.78-16,97.18,97.18,0,0,1-4.11-13A83.89,83.89,0,0,1,4,16.54C3.69,14.3,3.5,12,3.43,9.79a.79.79,0,0,0,0-.16V8.05c0-.16.07-.32.09-.48A5.67,5.67,0,0,1,7.84,2.93l.66-.14Z"/></g><path class="cls-1" d="M79.67,28.18l1.58-1.58-3.36-4.52A12.7,12.7,0,1,0,67,28.18l.75,0,3.16,6.08,1.7-1,1.21,2.06,5.21,1.82-.61,2.91,2.67,1.21v3.15l2.67.85-.48,3.27,2.67,1-.73,4L86.1,55,91.8,57l2.3-4.24Z"/><circle class="cls-1" cx="65.72" cy="12.74" r="3.9"/></svg>