<?xml version="1.0" encoding="UTF-8"?>
<svg width="38px" height="39px" viewBox="0 0 38 39" version="1.1" xmlns="http://www.w3.org/2000/svg" xmlns:xlink="http://www.w3.org/1999/xlink">
    <!-- Generator: Sketch 51.2 (57519) - http://www.bohemiancoding.com/sketch -->
    <title>Voice Alert Copy</title>
    <desc>Created with Sketch.</desc>
    <defs>
        <polygon id="path-1" points="0.89264 0.7696 18.3072 0.7696 18.3072 19.17216 0.89264 19.17216"></polygon>
    </defs>
    <g id="Final" stroke="none" stroke-width="1" fill="none" fill-rule="evenodd">
        <g id="Voice-Alert-Copy" transform="translate(0.000000, -1.000000)">
            <path d="M30.15024,21.99024 C31.90064,21.51184 32.97264,19.78064 32.66544,18.02864 L25.96784,19.86384 C26.59664,21.52784 28.39984,22.47024 30.15024,21.99024" id="Fill-1" fill="#6CC16F"></path>
            <g id="Group-5" transform="translate(19.200000, 0.831040)">
                <mask id="mask-2" fill="white">
                    <use xlink:href="#path-1"></use>
                </mask>
                <g id="Clip-4"></g>
                <path d="M5.95344,3.48736 C5.45104,3.62496 4.92944,3.32896 4.79024,2.82496 C4.65424,2.32096 4.95024,1.79936 5.45424,1.66176 C5.95824,1.52416 6.47824,1.82176 6.61584,2.32576 C6.75504,2.82976 6.45744,3.34976 5.95344,3.48736 Z M17.97424,13.27776 C14.88464,13.19296 14.24944,8.47616 14.24944,8.47616 C13.55184,5.05056 11.83664,3.31456 11.83664,3.31456 C10.16944,2.02016 8.53584,1.70016 7.36944,1.68736 C6.95824,0.98176 6.11344,0.60896 5.28784,0.83456 C4.43984,1.06656 3.89424,1.85376 3.92944,2.69376 C2.96784,3.32096 1.82704,4.40896 1.09904,6.25376 C1.09904,6.25376 0.50704,8.62016 1.65264,11.92256 C1.65264,11.92256 3.50864,16.30816 0.89264,17.95456 L1.22544,19.17216 L18.30864,14.49536 L17.97424,13.27776 Z" id="Fill-3" fill="#6CC16F" mask="url(#mask-2)"></path>
            </g>
            <path d="M29.36128,39.23088 C28.62528,39.23088 27.88768,39.06288 27.22688,38.73968 C23.36448,36.86448 17.53088,33.40048 11.68128,27.54928 C5.83168,21.70128 2.36768,15.86608 0.49088,12.00368 C-0.42272,10.12208 -0.03712,7.85968 1.45248,6.37008 L5.53728,2.31088 L13.90688,10.72848 L9.88608,14.79888 L9.96928,14.98928 C10.03968,15.14448 11.71168,18.84208 15.94848,23.07728 C20.19008,27.32048 23.84608,28.95088 23.99968,29.01808 L24.18688,29.10128 L28.33728,25.08208 L36.93408,33.69168 L32.86528,37.77648 C31.92608,38.71568 30.68128,39.23088 29.36128,39.23088" id="Fill-6" fill="#ABEAAE"></path>
        </g>
    </g>
</svg>