<?xml version="1.0" encoding="UTF-8"?>
<svg width="39px" height="40px" viewBox="0 0 39 40" version="1.1" xmlns="http://www.w3.org/2000/svg" xmlns:xlink="http://www.w3.org/1999/xlink">
    <!-- Generator: Sketch 51.2 (57519) - http://www.bohemiancoding.com/sketch -->
    <title>Voice Notification Copy</title>
    <desc>Created with Sketch.</desc>
    <defs>
        <polygon id="path-1" points="0 39.2113333 38.475 39.2113333 38.475 -0.000333333333 0 -0.000333333333"></polygon>
    </defs>
    <g id="Final" stroke="none" stroke-width="1" fill="none" fill-rule="evenodd">
        <g id="Voice-Notification-Copy">
            <path d="M30.5846667,39.2111667 C29.818,39.2111667 29.0496667,39.0361667 28.3613333,38.6995 C24.338,36.7461667 18.2613333,33.1378333 12.168,27.0428333 C6.07466667,20.9511667 2.46633333,14.8728333 0.511333333,10.8495 C-0.440333333,8.8895 -0.0386666667,6.53283333 1.513,4.98116667 L5.768,0.752833333 L14.4863333,9.52116667 L10.298,13.7611667 L10.3846667,13.9595 C10.458,14.1211667 12.1996667,17.9728333 16.613,22.3845 C21.0313333,26.8045 24.8396667,28.5028333 24.9996667,28.5728333 L25.1946667,28.6595 L29.518,24.4728333 L38.4746667,33.4411667 L34.2346667,37.6961667 C33.2563333,38.6745 31.9596667,39.2111667 30.5846667,39.2111667" id="Fill-1" fill="#ABEAAE"></path>
            <mask id="mask-2" fill="white">
                <use xlink:href="#path-1"></use>
            </mask>
            <g id="Clip-4"></g>
            <path d="M26.4166667,12.2463333 L28.9516667,12.2463333 L28.9516667,5.93633333 L26.4166667,5.93633333 L26.4166667,12.2463333 Z M26.4166667,15.823 L28.9516667,15.823 L28.9516667,13.273 L26.4166667,13.273 L26.4166667,15.823 Z M38.155,15.8546667 L29.37,0.909666667 C28.6633333,-0.292 26.9283333,-0.305333333 26.2033333,0.886333333 L17.0966667,15.8313333 C16.3483333,17.0596667 17.2333333,18.6363333 18.6716667,18.6363333 L36.565,18.6363333 C37.9916667,18.6363333 38.8766667,17.0863333 38.155,15.8546667 Z" id="Fill-3" fill="#6CC16F" mask="url(#mask-2)"></path>
        </g>
    </g>
</svg>