<svg id="Layer_1" data-name="Layer 1" xmlns="http://www.w3.org/2000/svg" viewBox="0 0 100 100"><defs><style>.cls-1{fill:none;stroke:#fff;stroke-linejoin:round;stroke-width:4px;}</style></defs><title>Voice Broadcasting-100x0100</title><g id="iiRI5x.tif"><path class="cls-1" d="M28.9,2.79a10.55,10.55,0,0,1,1.35.35A5.55,5.55,0,0,1,33.92,8a7.38,7.38,0,0,1,0,.86q0,11,0,22a.68.68,0,0,1-.21.51l-8.13,8.38-3.53,3.66-.08.09c.47.68.94,1.36,1.41,2A160.49,160.49,0,0,0,35.74,60.74,110.59,110.59,0,0,0,44.13,69a63.24,63.24,0,0,0,11.07,8l.89.48.11,0a2.46,2.46,0,0,1,.18-.22L67.91,65.82a.6.6,0,0,1,.47-.19H90.16a5.69,5.69,0,0,1,5.48,3.66,5.44,5.44,0,0,1,.37,2q0,10.19,0,20.38a5.58,5.58,0,0,1-6,5.53c-1.74-.15-3.48-.38-5.21-.66-2.8-.46-5.6-.95-8.38-1.51a120.31,120.31,0,0,1-13-3.44A105.39,105.39,0,0,1,50,86.27a77.26,77.26,0,0,1-15.47-9.69A60.37,60.37,0,0,1,24.42,66a119.05,119.05,0,0,1-7.5-11.23,113.85,113.85,0,0,1-7.78-16A97.18,97.18,0,0,1,5,25.72a83.89,83.89,0,0,1-1.66-9.17C3.1,14.3,2.9,12,2.83,9.79a.79.79,0,0,0,0-.16V8.05c0-.16.07-.32.09-.48A5.67,5.67,0,0,1,7.24,2.93l.66-.14Z"/></g><ellipse class="cls-1" cx="85.99" cy="28.05" rx="11.21" ry="22.23"/><path class="cls-1" d="M45.65,20.37H59.73a0,0,0,0,1,0,0V36.32a0,0,0,0,1,0,0H45.65a4.08,4.08,0,0,1-4.08-4.08v-7.8A4.08,4.08,0,0,1,45.65,20.37Z"/><path class="cls-1" d="M80.1,47c-7.18-6.07-14-9.48-20.37-10.65V20.37c7.67-1.72,14.85-6.79,21.91-12.71"/><path class="cls-1" d="M87.44,32.56H81a14.65,14.65,0,0,1,0-9h6.47a4.51,4.51,0,0,1,4.51,4.51h0A4.51,4.51,0,0,1,87.44,32.56Z"/><polygon class="cls-1" points="57.67 58.72 49.11 58.72 46.78 42.1 55.35 42.1 57.67 58.72"/></svg>