<?xml version="1.0" encoding="UTF-8"?>
<svg width="36px" height="36px" viewBox="0 0 36 36" version="1.1" xmlns="http://www.w3.org/2000/svg" xmlns:xlink="http://www.w3.org/1999/xlink">
    <!-- Generator: Sketch 51.2 (57519) - http://www.bohemiancoding.com/sketch -->
    <title>IVR Copy</title>
    <desc>Created with Sketch.</desc>
    <defs>
        <polygon id="path-1" points="0 1.17585217 10.2117055 1.17585217 10.2117055 11.4556783 0 11.4556783"></polygon>
        <polygon id="path-3" points="0.758264091 1.17585217 10.9694773 1.17585217 10.9694773 11.4556783 0.758264091 11.4556783"></polygon>
        <polygon id="path-5" points="0 0.404617391 10.2117055 0.404617391 10.2117055 10.6844435 0 10.6844435"></polygon>
        <polygon id="path-7" points="0.758264091 0.404617391 10.9694773 0.404617391 10.9694773 10.6844435 0.758264091 10.6844435"></polygon>
        <polygon id="path-9" points="0 1.28390435 10.2117055 1.28390435 10.2117055 11.5652174 0 11.5652174"></polygon>
        <polygon id="path-11" points="1.19884818 1.28390435 11.4102255 1.28390435 11.4102255 11.5652174 1.19884818 11.5652174"></polygon>
        <polygon id="path-13" points="0.758264091 1.28390435 10.9694773 1.28390435 10.9694773 11.5652174 0.758264091 11.5652174"></polygon>
    </defs>
    <g id="Final" stroke="none" stroke-width="1" fill="none" fill-rule="evenodd">
        <g id="IVR-Copy" transform="translate(0.000000, -1.000000)">
            <g id="Group-3" transform="translate(0.000000, 0.477148)">
                <mask id="mask-2" fill="white">
                    <use xlink:href="#path-1"></use>
                </mask>
                <g id="Clip-2"></g>
                <path d="M10.2117055,6.31576522 C10.2117055,9.15585217 7.92427818,11.4556783 5.10683727,11.4556783 C2.28611455,11.4556783 -0.00131272727,9.15585217 -0.00131272727,6.31576522 C-0.00131272727,3.47567826 2.28611455,1.17585217 5.10683727,1.17585217 C7.92427818,1.17585217 10.2117055,3.47567826 10.2117055,6.31576522" id="Fill-1" fill="#6CC16F" mask="url(#mask-2)"></path>
            </g>
            <path d="M22.8965891,6.79291304 C22.8965891,9.633 20.6108027,11.9328261 17.7917209,11.9328261 C14.9726391,11.9328261 12.6852118,9.633 12.6852118,6.79291304 C12.6852118,3.95282609 14.9726391,1.653 17.7917209,1.653 C20.6108027,1.653 22.8965891,3.95282609 22.8965891,6.79291304" id="Fill-4" fill="#ABEAAE"></path>
            <g id="Group-8" transform="translate(24.613636, 0.477148)">
                <mask id="mask-4" fill="white">
                    <use xlink:href="#path-3"></use>
                </mask>
                <g id="Clip-7"></g>
                <path d="M10.9696414,6.31576522 C10.9696414,9.15585217 8.683855,11.4556783 5.86477318,11.4556783 C3.04405045,11.4556783 0.758264091,9.15585217 0.758264091,6.31576522 C0.758264091,3.47567826 3.04405045,1.17585217 5.86477318,1.17585217 C8.683855,1.17585217 10.9696414,3.47567826 10.9696414,6.31576522" id="Fill-6" fill="#ABEAAE" mask="url(#mask-4)"></path>
            </g>
            <g id="Group-11" transform="translate(0.000000, 13.694539)">
                <mask id="mask-6" fill="white">
                    <use xlink:href="#path-5"></use>
                </mask>
                <g id="Clip-10"></g>
                <path d="M10.2117055,5.54453043 C10.2117055,8.38296522 7.92427818,10.6844435 5.10683727,10.6844435 C2.28611455,10.6844435 -0.00131272727,8.38296522 -0.00131272727,5.54453043 C-0.00131272727,2.70444348 2.28611455,0.404617391 5.10683727,0.404617391 C7.92427818,0.404617391 10.2117055,2.70444348 10.2117055,5.54453043" id="Fill-9" fill="#ABEAAE" mask="url(#mask-6)"></path>
            </g>
            <path d="M22.8965891,19.2390696 C22.8965891,22.0775043 20.6108027,24.3789826 17.7917209,24.3789826 C14.9726391,24.3789826 12.6852118,22.0775043 12.6852118,19.2390696 C12.6852118,16.3989826 14.9726391,14.0991565 17.7917209,14.0991565 C20.6108027,14.0991565 22.8965891,16.3989826 22.8965891,19.2390696" id="Fill-12" fill="#ABEAAE"></path>
            <g id="Group-16" transform="translate(24.613636, 13.694539)">
                <mask id="mask-8" fill="white">
                    <use xlink:href="#path-7"></use>
                </mask>
                <g id="Clip-15"></g>
                <path d="M10.9696414,5.54453043 C10.9696414,8.38296522 8.683855,10.6844435 5.86477318,10.6844435 C3.04405045,10.6844435 0.758264091,8.38296522 0.758264091,5.54453043 C0.758264091,2.70444348 3.04405045,0.404617391 5.86477318,0.404617391 C8.683855,0.404617391 10.9696414,2.70444348 10.9696414,5.54453043" id="Fill-14" fill="#ABEAAE" mask="url(#mask-8)"></path>
            </g>
            <g id="Group-19" transform="translate(0.000000, 25.259757)">
                <mask id="mask-10" fill="white">
                    <use xlink:href="#path-9"></use>
                </mask>
                <g id="Clip-18"></g>
                <path d="M10.2117055,6.42381739 C10.2117055,9.26390435 7.92427818,11.5653826 5.10683727,11.5653826 C2.28611455,11.5653826 -0.00131272727,9.26390435 -0.00131272727,6.42381739 C-0.00131272727,3.58538261 2.28611455,1.28390435 5.10683727,1.28390435 C7.92427818,1.28390435 10.2117055,3.58538261 10.2117055,6.42381739" id="Fill-17" fill="#ABEAAE" mask="url(#mask-10)"></path>
            </g>
            <g id="Group-22" transform="translate(11.486364, 25.259757)">
                <mask id="mask-12" fill="white">
                    <use xlink:href="#path-11"></use>
                </mask>
                <g id="Clip-21"></g>
                <path d="M11.4102255,6.42381739 C11.4102255,9.26390435 9.12443909,11.5653826 6.30535727,11.5653826 C3.48627545,11.5653826 1.19884818,9.26390435 1.19884818,6.42381739 C1.19884818,3.58538261 3.48627545,1.28390435 6.30535727,1.28390435 C9.12443909,1.28390435 11.4102255,3.58538261 11.4102255,6.42381739" id="Fill-20" fill="#ABEAAE" mask="url(#mask-12)"></path>
            </g>
            <g id="Group-25" transform="translate(24.613636, 25.259757)">
                <mask id="mask-14" fill="white">
                    <use xlink:href="#path-13"></use>
                </mask>
                <g id="Clip-24"></g>
                <path d="M10.9696414,6.42381739 C10.9696414,9.26390435 8.683855,11.5653826 5.86477318,11.5653826 C3.04405045,11.5653826 0.758264091,9.26390435 0.758264091,6.42381739 C0.758264091,3.58538261 3.04405045,1.28390435 5.86477318,1.28390435 C8.683855,1.28390435 10.9696414,3.58538261 10.9696414,6.42381739" id="Fill-23" fill="#ABEAAE" mask="url(#mask-14)"></path>
            </g>
        </g>
    </g>
</svg>