
<svg width="813px" height="360px" viewBox="0 0 813 360" version="1.1" xmlns="http://www.w3.org/2000/svg" xmlns:xlink="http://www.w3.org/1999/xlink">
    <!-- Generator: Sketch 45.1 (43504) - http://www.bohemiancoding.com/sketch -->
    <desc>Created with Sketch.</desc>
    <defs>
        <rect id="path-1" x="0" y="0" width="813" height="360"></rect>
    </defs>
    <g id="Page-1" stroke="none" stroke-width="1" fill="none" fill-rule="evenodd">
        <g id="A4" transform="translate(-94.000000, -20.000000)">
            <g id="Group-11" transform="translate(94.000000, 20.000000)">
                <g id="Rectangle">
                    <use fill="#FFFFFF" fill-rule="evenodd" xlink:href="#path-1"></use>
                    <rect stroke="#FFFFFF" stroke-width="1" x="0.5" y="0.5" width="812" height="359"></rect>
                </g>
                <g id="Group-10" transform="translate(133.000000, 34.000000)">
                    <g id="Group-9" transform="translate(0.000000, 24.000000)">
                        <g id="Application" stroke="#434343" stroke-width="2">
                            <path d="M0.0861923139,64.6873316 L0.0861923139,76.3048241 C0.0861923139,78.1035262 1.54432842,79.5616623 3.34303046,79.5616623 L107.303274,79.5616623 C109.101976,79.5616623 110.560112,78.1035262 110.560112,76.3048241 L110.560112,3.73089587 C110.560112,1.93219383 109.101976,0.474057726 107.303274,0.474057726 L3.34303046,0.474057726 C1.54432842,0.474057726 0.0861923139,1.93219383 0.0861923139,3.73089587 L0.0861923139,64.681175 L0.0861923139,64.6873316 Z" id="Shape" stroke-linejoin="round"></path>
                            <path d="M110.732497,11.2419404 L0.178541222,11.2419404" id="Shape" stroke-linejoin="round"></path>
                            <circle id="Oval" stroke-linejoin="round" cx="20.1690014" cy="6.02114878" r="2.5057337"></circle>
                            <circle id="Oval" stroke-linejoin="round" cx="13.1504845" cy="6.02114878" r="2.5057337"></circle>
                            <circle id="Oval" stroke-linejoin="round" cx="6.13196747" cy="6.02114878" r="2.5057337"></circle>
                            <rect id="Rectangle-path" x="6.19969" y="20.9324191" width="34.7355025" height="22.9702516"></rect>
                            <rect id="Rectangle-path" x="44.9431351" y="20.9324191" width="17.219993" height="22.9702516"></rect>
                            <rect id="Rectangle-path" x="66.1710707" y="20.9324191" width="17.219993" height="22.9702516"></rect>
                            <rect id="Rectangle-path" x="87.3928497" y="20.9324191" width="17.219993" height="22.9702516"></rect>
                            <rect id="Rectangle-path" x="6.19969" y="47.8490474" width="47.3503633" height="22.9702516"></rect>
                            <rect id="Rectangle-path" x="57.268636" y="47.8490474" width="47.3503633" height="22.9702516"></rect>
                            <path d="M6.08887131,53.4823307 L53.2483802,53.4823307" id="Shape"></path>
                            <path d="M45.1709291,26.1716804 L62.1631281,26.1716804" id="Shape"></path>
                            <path d="M66.2818894,26.1716804 L83.2740884,26.1716804" id="Shape"></path>
                            <path d="M87.3928497,26.1716804 L104.391205,26.1716804" id="Shape"></path>
                            <path d="M57.7550069,53.4823307 L104.914516,53.4823307" id="Shape"></path>
                            <rect id="Rectangle-path" fill="#43A047" fill-rule="nonzero" x="6.19969" y="20.9324191" width="34.7355025" height="5.59018721"></rect>
                        </g>
                        <g id="Mobile-Phone" transform="translate(500.000000, 0.000000)" stroke="#434343" stroke-width="2">
                            <rect id="Rectangle-path" x="0.426666667" y="0.417777778" width="45.3733333" height="79.1644444" rx="8.34"></rect>
                            <circle id="Oval" fill="#43A047" fill-rule="nonzero" cx="23.1111111" cy="73.8266667" r="2.47111111"></circle>
                        </g>
                        <g id="Group-6" transform="translate(129.351402, 35.000000)" stroke-linecap="round" stroke-width="1.5" stroke="#434343">
                            <g id="Group-5" transform="translate(0.692451, 5.500000)" stroke-dasharray="4,7,1,1" stroke-linejoin="round">
                                <g id="Group-4">
                                    <path d="M0.363204597,0.5625 L112.95663,0.5625" id="Line"></path>
                                </g>
                            </g>
                            <g id="Group-3" transform="translate(105.000000, 0.000000)">
                                <path d="M0.5,5.5 L10.5,10.5" id="Line-5" transform="translate(5.500000, 8.000000) scale(1, -1) translate(-5.500000, -8.000000) "></path>
                                <path d="M0.5,0.5 L10.5,5.5" id="Line-5-Copy"></path>
                            </g>
                        </g>
                        <g id="Group-8" transform="translate(366.050467, 13.000000)" stroke-linecap="round" stroke-width="1.5" stroke="#434343">
                            <g id="Group-6">
                                <g id="Group-5" transform="translate(0.692451, 5.500000)" stroke-dasharray="4,7,1,1" stroke-linejoin="round">
                                    <g id="Group-4">
                                        <path d="M0.363204597,0.5625 L112.95663,0.5625" id="Line"></path>
                                    </g>
                                </g>
                                <g id="Group-3" transform="translate(105.000000, 0.000000)">
                                    <path d="M0.5,5.5 L10.5,10.5" id="Line-5" transform="translate(5.500000, 8.000000) scale(1, -1) translate(-5.500000, -8.000000) "></path>
                                    <path d="M0.5,0.5 L10.5,5.5" id="Line-5-Copy"></path>
                                </g>
                            </g>
                            <g id="Group-2" transform="translate(0.000000, 43.000000)">
                                <g id="Group-6" transform="translate(58.000000, 5.500000) scale(-1, 1) translate(-58.000000, -5.500000) ">
                                    <g id="Group-5" transform="translate(0.692451, 5.500000)" stroke-dasharray="4,7,1,1" stroke-linejoin="round">
                                        <g id="Group-4">
                                            <path d="M0.363204597,0.5625 L112.95663,0.5625" id="Line"></path>
                                        </g>
                                    </g>
                                    <g id="Group-3" transform="translate(105.000000, 0.000000)">
                                        <path d="M0.5,5.5 L10.5,10.5" id="Line-5" transform="translate(5.500000, 8.000000) scale(1, -1) translate(-5.500000, -8.000000) "></path>
                                        <path d="M0.5,0.5 L10.5,5.5" id="Line-5-Copy"></path>
                                    </g>
                                </g>
                            </g>
                        </g>
                        <g id="Group" transform="translate(262.000000, 0.000000)">
                            <rect id="Rectangle-path" stroke="#434343" stroke-width="2" x="0.303448276" y="0.0965517241" width="83.9908046" height="22.6022989" rx="5.08"></rect>
                            <circle id="Oval" stroke="#434343" stroke-width="2" fill="#43A047" fill-rule="nonzero" cx="55.3701149" cy="12.0091954" r="2.90114943"></circle>
                            <circle id="Oval" stroke="#434343" stroke-width="2" fill="#43A047" fill-rule="nonzero" cx="65.0482759" cy="12.0091954" r="2.90114943"></circle>
                            <circle id="Oval" stroke="#434343" stroke-width="2" fill="#43A047" fill-rule="nonzero" cx="74.7264368" cy="12.0091954" r="2.90114943"></circle>
                            <rect id="Rectangle-path" stroke="#434343" stroke-width="2" x="6.53793103" y="4.58850575" width="4.06896552" height="13.6275862" rx="2.03448276"></rect>
                            <rect id="Rectangle-path" stroke="#434343" stroke-width="2" x="13.3103448" y="4.58850575" width="4.06896552" height="13.6275862" rx="2.03448276"></rect>
                            <rect id="Rectangle-path" stroke="#434343" stroke-width="2" x="20.0827586" y="4.58850575" width="4.06896552" height="13.6275862" rx="2.03448276"></rect>
                            <rect id="Rectangle-path" stroke="#434343" stroke-width="2" x="0.303448276" y="57.2965517" width="83.9908046" height="22.6022989" rx="5.08"></rect>
                            <circle id="Oval" stroke="#434343" stroke-width="2" fill="#43A047" fill-rule="nonzero" cx="55.3701149" cy="69.2091954" r="2.90114943"></circle>
                            <circle id="Oval" stroke="#434343" stroke-width="2" fill="#43A047" fill-rule="nonzero" cx="65.0482759" cy="69.2091954" r="2.90114943"></circle>
                            <circle id="Oval" stroke="#434343" stroke-width="2" fill="#43A047" fill-rule="nonzero" cx="74.7264368" cy="69.2091954" r="2.90114943"></circle>
                            <rect id="Rectangle-path" stroke="#434343" stroke-width="2" x="6.53793103" y="61.7885057" width="4.06896552" height="13.6275862" rx="2.03448276"></rect>
                            <rect id="Rectangle-path" stroke="#434343" stroke-width="2" x="13.3103448" y="61.7885057" width="4.06896552" height="13.6275862" rx="2.03448276"></rect>
                            <rect id="Rectangle-path" stroke="#434343" stroke-width="2" x="20.0827586" y="61.7885057" width="4.06896552" height="13.6275862" rx="2.03448276"></rect>
                            <rect id="Rectangle-path" stroke="#434343" stroke-width="2" x="0.303448276" y="28.6988506" width="83.9908046" height="22.6022989" rx="5.08"></rect>
                            <circle id="Oval" stroke="#434343" stroke-width="2" fill="#43A047" fill-rule="nonzero" cx="55.3701149" cy="40.6068966" r="2.90114943"></circle>
                            <circle id="Oval" stroke="#434343" stroke-width="2" fill="#43A047" fill-rule="nonzero" cx="65.0482759" cy="40.6068966" r="2.90114943"></circle>
                            <circle id="Oval" stroke="#434343" stroke-width="2" fill="#43A047" fill-rule="nonzero" cx="74.7264368" cy="40.6068966" r="2.90114943"></circle>
                            <rect id="Rectangle-path" stroke="#434343" stroke-width="2" x="6.53793103" y="33.1862069" width="4.06896552" height="13.6275862" rx="2.03448276"></rect>
                            <rect id="Rectangle-path" stroke="#434343" stroke-width="2" x="13.3103448" y="33.1862069" width="4.06896552" height="13.6275862" rx="2.03448276"></rect>
                            <rect id="Rectangle-path" stroke="#434343" stroke-width="2" x="20.0827586" y="33.1862069" width="4.06896552" height="13.6275862" rx="2.03448276"></rect>
                            <rect id="Rectangle-path" stroke="#434343" stroke-width="2" x="11.691954" y="22.7034483" width="5.37471264" height="5.9954023"></rect>
                            <rect id="Rectangle-path" stroke="#434343" stroke-width="2" x="67.5356322" y="22.7034483" width="5.37471264" height="5.9954023"></rect>
                            <rect id="Rectangle-path" stroke="#434343" stroke-width="2" x="11.691954" y="51.3011494" width="5.37471264" height="5.9954023"></rect>
                            <rect id="Rectangle-path" stroke="#434343" stroke-width="2" x="67.5356322" y="51.3011494" width="5.37471264" height="5.9954023"></rect>
                            <rect id="Rectangle-path" fill="#42A047" fill-rule="nonzero" x="36.1655172" y="38.0781609" width="1.48045977" height="1.48045977" rx="0.740229885"></rect>
                            <rect id="Rectangle-path" fill="#42A047" fill-rule="nonzero" x="38.2666667" y="38.0781609" width="1.48045977" height="1.48045977" rx="0.740229885"></rect>
                            <rect id="Rectangle-path" fill="#42A047" fill-rule="nonzero" x="40.3678161" y="38.0781609" width="1.48045977" height="1.48045977" rx="0.740229885"></rect>
                            <rect id="Rectangle-path" fill="#42A047" fill-rule="nonzero" x="36.1655172" y="40.1793103" width="1.48045977" height="1.48045977" rx="0.740229885"></rect>
                            <rect id="Rectangle-path" fill="#42A047" fill-rule="nonzero" x="38.2666667" y="40.1793103" width="1.48045977" height="1.48045977" rx="0.740229885"></rect>
                            <rect id="Rectangle-path" fill="#42A047" fill-rule="nonzero" x="40.3678161" y="40.1793103" width="1.48045977" height="1.48045977" rx="0.740229885"></rect>
                            <rect id="Rectangle-path" fill="#42A047" fill-rule="nonzero" x="36.1655172" y="42.2850575" width="1.48045977" height="1.48045977" rx="0.740229885"></rect>
                            <rect id="Rectangle-path" fill="#42A047" fill-rule="nonzero" x="38.2666667" y="42.2850575" width="1.48045977" height="1.48045977" rx="0.740229885"></rect>
                            <rect id="Rectangle-path" fill="#42A047" fill-rule="nonzero" x="40.3678161" y="42.2850575" width="1.48045977" height="1.48045977" rx="0.740229885"></rect>
                            <path d="M44.5977011,38.4137931 C44.3189974,36.0703701 42.580686,34.1636873 40.2729355,33.6701342 C37.965185,33.176581 35.5990527,34.2054563 34.3862069,36.2298851 L34.3862069,34.1977011 C34.3862069,33.793962 34.0589116,33.4666667 33.6551724,33.4666667 C33.2514332,33.4666667 32.9241379,33.793962 32.9241379,34.1977011 L32.9241379,37.6781609 C30.9773133,38.6345847 29.9461426,40.8063101 30.4354815,42.9194641 C30.9248204,45.0326182 32.8056433,46.530019 34.9747126,46.5333333 L42.9609195,46.5333333 C44.9653294,46.5214277 46.686171,45.1043109 47.0822701,43.139392 C47.4783693,41.1744732 46.4409546,39.2013319 44.5977011,38.4137931 Z M42.9609195,45.0574713 L34.9747126,45.0574713 C33.3854196,45.0079666 32.0704737,43.8052488 31.8797568,42.2266639 C31.6890398,40.6480791 32.6797191,39.1668069 34.2114943,38.7402299 L34.9931034,38.5517241 L35.2505747,37.7931034 C35.8595604,35.9943431 37.6295238,34.8539979 39.5191522,35.0429608 C41.4087806,35.2319236 42.9178842,36.7001755 43.1586207,38.583908 L43.2643678,39.416092 L44.0367816,39.7425287 C45.267055,40.2411713 45.9677166,41.5453443 45.7043458,42.8464411 C45.440975,44.1475378 44.2882676,45.0765479 42.9609195,45.0574713 Z" id="Shape" fill="#42A047" fill-rule="nonzero"></path>
                        </g>
                        <g id="Customer-Server" transform="translate(257.000000, 164.000000)" stroke-width="2">
                            <rect id="Rectangle-path" stroke="#434343" x="0.0929032258" y="0.510967742" width="67.5819355" height="18.1883871" rx="3.64"></rect>
                            <circle id="Oval" stroke="#434343" cx="44.4025806" cy="10.0954839" r="2.33290323"></circle>
                            <circle id="Oval" stroke="#434343" cx="52.1909677" cy="10.0954839" r="2.33290323"></circle>
                            <circle id="Oval" stroke="#434343" cx="59.9741935" cy="10.0954839" r="2.33290323"></circle>
                            <rect id="Rectangle-path" stroke="#434343" x="5.10967742" y="4.12387097" width="3.27225806" height="10.9625806" rx="1.63612903"></rect>
                            <rect id="Rectangle-path" stroke="#434343" x="10.56" y="4.12387097" width="3.27225806" height="10.9625806" rx="1.63612903"></rect>
                            <rect id="Rectangle-path" stroke="#434343" x="16.0103226" y="4.12387097" width="3.27225806" height="10.9625806" rx="1.63612903"></rect>
                            <path d="M53.1148387,64.7225806 L1.9716129,64.7225806 C0.934030199,64.7225806 0.0929032258,63.8814537 0.0929032258,62.843871 L0.0929032258,48.3922581 C0.0929032258,47.3546754 0.934030199,46.5135484 1.9716129,46.5135484 L62.0129032,46.5135484" id="Shape" stroke="#434343"></path>
                            <circle id="Oval" stroke="#434343" cx="44.4025806" cy="56.1187097" r="2.33290323"></circle>
                            <circle id="Oval" stroke="#434343" cx="52.1909677" cy="56.1187097" r="2.33290323"></circle>
                            <circle id="Oval" stroke="#434343" cx="59.9741935" cy="56.1187097" r="2.33290323"></circle>
                            <rect id="Rectangle-path" stroke="#434343" x="5.10967742" y="50.1470968" width="3.27225806" height="10.9625806" rx="1.63612903"></rect>
                            <rect id="Rectangle-path" stroke="#434343" x="10.56" y="50.1470968" width="3.27225806" height="10.9625806" rx="1.63612903"></rect>
                            <rect id="Rectangle-path" stroke="#434343" x="16.0103226" y="50.1470968" width="3.27225806" height="10.9625806" rx="1.63612903"></rect>
                            <path d="M62.3070968,41.7135484 L1.9716129,41.7135484 C0.934030199,41.7135484 0.0929032258,40.8724214 0.0929032258,39.8348387 L0.0929032258,25.3832258 C0.0929032258,24.3456431 0.934030199,23.5045161 1.9716129,23.5045161 L65.796129,23.5045161 C66.8337117,23.5045161 67.6748387,24.3456431 67.6748387,25.3832258 L67.6748387,31.396129" id="Shape" stroke="#434343"></path>
                            <circle id="Oval" stroke="#434343" cx="44.4025806" cy="33.1045161" r="2.33290323"></circle>
                            <circle id="Oval" stroke="#434343" cx="52.1909677" cy="33.1045161" r="2.33290323"></circle>
                            <circle id="Oval" stroke="#434343" cx="59.9741935" cy="33.1045161" r="2.33290323"></circle>
                            <rect id="Rectangle-path" stroke="#434343" x="5.10967742" y="27.1380645" width="3.27225806" height="10.9625806" rx="1.63612903"></rect>
                            <rect id="Rectangle-path" stroke="#434343" x="10.56" y="27.1380645" width="3.27225806" height="10.9625806" rx="1.63612903"></rect>
                            <rect id="Rectangle-path" stroke="#434343" x="16.0103226" y="27.1380645" width="3.27225806" height="10.9625806" rx="1.63612903"></rect>
                            <rect id="Rectangle-path" stroke="#434343" x="9.25419355" y="18.6993548" width="4.32516129" height="4.82064516"></rect>
                            <rect id="Rectangle-path" stroke="#434343" x="54.1883871" y="18.6993548" width="4.32516129" height="4.82064516"></rect>
                            <rect id="Rectangle-path" stroke="#434343" x="9.25419355" y="41.7135484" width="4.32516129" height="4.82064516"></rect>
                            <rect id="Rectangle-path" stroke="#434343" x="54.1883871" y="41.7135484" width="4.32516129" height="4.82064516"></rect>
                            <g id="EkcOTz.tif" transform="translate(64.000000, 33.032258)" stroke="#434343">
                                <path d="M18.6735484,8.03612903 C18.523871,9.30580645 18.4,10.4258065 18.2451613,11.5458065 C18.1987097,11.8709677 18.1935484,12.1290323 18.4980645,12.3406452 C18.7607202,12.5327766 18.9052217,12.8471651 18.88,13.1716129 C18.8568438,14.4246933 18.5310261,15.6535929 17.9303226,16.7535484 C17.6639836,17.3873296 17.4432079,18.0393077 17.2696774,18.7045161 C16.3922581,21.1870968 15.0864516,23.3496774 12.8516129,24.8980645 C11.0109787,26.160287 8.58781683,26.1766321 6.73032258,24.9393548 C4.92655247,23.7358246 3.5159324,22.029082 2.67354839,20.0309677 C2.28645161,19.1483871 2.03354839,18.2090323 1.71354839,17.2903226 C1.67763651,17.1629178 1.62742467,17.0399854 1.56387097,16.923871 C1.00143281,16.0152102 0.648782504,14.9925243 0.531612903,13.9303226 C0.449032258,13.2645161 0.418064516,12.6296774 1.04774194,12.1548387 C1.13548387,12.0877419 1.15612903,11.876129 1.14580645,11.7367742 C1.04258065,10.4929032 0.903225806,9.24903226 0.815483871,8.00516129 C0.660645161,5.79096774 1.64645161,4.07225806 3.23612903,2.65290323 C4.33941432,1.66771894 5.61023009,0.888098805 6.9883871,0.350967742 C7.85360911,0.0258171597 8.80120716,-0.00860800842 9.68774194,0.252903226 C11.9869802,0.827852138 14.1625586,1.81595648 16.1083871,3.16903226 C17.0374194,3.81935484 17.9148387,4.58322581 18.2554839,5.7083871 C18.4459725,6.4742426 18.5856317,7.25185152 18.6735484,8.03612903 L18.6735484,8.03612903 Z" id="Shape"></path>
                            </g>
                            <polygon id="Shape" stroke="#434343" fill="#43A047" fill-rule="nonzero" points="67.8864516 58.4567742 73.7651613 63.6645161 67.8864516 67.7006452 65.0270968 61.563871"></polygon>
                            <polygon id="Shape" stroke="#434343" fill="#43A047" fill-rule="nonzero" points="73.7651613 63.6645161 79.8193548 67.7006452 83.0090323 61.4812903 79.8193548 58.4567742"></polygon>
                            <path d="M65.0322581,61.563871 C63.040914,61.8840419 61.0984221,62.4563832 59.2516129,63.2670968 C55.6006506,64.9339841 53.2600539,68.5800687 53.2645161,72.5935484 L53.2645161,79.5096774 L74.3225806,79.5096774" id="Shape" stroke="#434444" stroke-linejoin="round"></path>
                            <path d="M83.0554839,61.563871 C85.0468279,61.8840419 86.9893199,62.4563832 88.836129,63.2670968 C92.4870914,64.9339841 94.827688,68.5800687 94.8232258,72.5935484 L94.8232258,79.5096774 L73.7651613,79.5096774" id="Shape" stroke="#434444" stroke-linejoin="round"></path>
                            <polyline id="Shape" stroke="#434444" stroke-linejoin="round" points="71.3651613 65.3109677 73.0735484 67.7006452 71.3651613 79.5096774 74.3174194 79.5096774"></polyline>
                            <polyline id="Shape" stroke="#434444" stroke-linejoin="round" points="76.3974194 65.3109677 74.6890323 67.7006452 76.3974194 79.5096774 73.4451613 79.5096774"></polyline>
                        </g>
                        <g id="Group-7" transform="translate(269.000000, 97.500000)" stroke-linecap="round" stroke-width="1.5" stroke="#434343">
                            <g id="Group-6" transform="translate(5.500000, 24.500000) scale(-1, -1) rotate(90.000000) translate(-5.500000, -24.500000) translate(-19.000000, 19.000000)">
                                <g id="Group-5" transform="translate(0.122537, 5.500000)" stroke-dasharray="4,7,1,1" stroke-linejoin="round">
                                    <g id="Group-4">
                                        <path d="M0.151557998,0.5625 L47.1345373,0.5625" id="Line"></path>
                                    </g>
                                </g>
                                <g id="Group-3" transform="translate(38.000000, 0.000000)">
                                    <path d="M0.5,5.5 L10.5,10.5" id="Line-5" transform="translate(5.500000, 8.000000) scale(1, -1) translate(-5.500000, -8.000000) "></path>
                                    <path d="M0.5,0.5 L10.5,5.5" id="Line-5-Copy"></path>
                                </g>
                            </g>
                            <g id="Group-6" transform="translate(64.500000, 24.500000) scale(-1, 1) rotate(90.000000) translate(-64.500000, -24.500000) translate(40.000000, 19.000000)">
                                <g id="Group-5" transform="translate(0.122537, 5.500000)" stroke-dasharray="4,7,1,1" stroke-linejoin="round">
                                    <g id="Group-4">
                                        <path d="M0.151557998,0.5625 L47.1345373,0.5625" id="Line"></path>
                                    </g>
                                </g>
                                <g id="Group-3" transform="translate(38.000000, 0.000000)">
                                    <path d="M0.5,5.5 L10.5,10.5" id="Line-5" transform="translate(5.500000, 8.000000) scale(1, -1) translate(-5.500000, -8.000000) "></path>
                                    <path d="M0.5,0.5 L10.5,5.5" id="Line-5-Copy"></path>
                                </g>
                            </g>
                        </g>
                    </g>
                    <text id="1.-Initiate-a-call" font-family="HelveticaNeue, Helvetica Neue" font-size="11" font-weight="normal" fill="#000000">
                        <tspan x="146" y="49">1. Initiate a call</tspan>
                    </text>
                    <text id="2.-Plivo-calls-the-d" font-family="HelveticaNeue, Helvetica Neue" font-size="11" font-weight="normal" fill="#000000">
                        <tspan x="381.07" y="21">2. Plivo calls the </tspan>
                        <tspan x="393.9015" y="33">destination</tspan>
                    </text>
                    <text id="Application" font-family="HelveticaNeue, Helvetica Neue" font-size="13" font-weight="normal" fill="#000000">
                        <tspan x="23" y="12">Application</tspan>
                    </text>
                    <text id="Plivo-Server" font-family="HelveticaNeue, Helvetica Neue" font-size="13" font-weight="normal" fill="#000000">
                        <tspan x="269" y="12">Plivo Server</tspan>
                    </text>
                    <text id="Your-Server" font-family="HelveticaNeue, Helvetica Neue" font-size="13" font-weight="normal" fill="#000000">
                        <tspan x="274" y="290">Your Server</tspan>
                    </text>
                    <text id="End-user" font-family="HelveticaNeue, Helvetica Neue" font-size="13" font-weight="normal" fill="#000000">
                        <tspan x="495" y="12">End user</tspan>
                    </text>
                    <text id="3.-End-user-answers" font-family="HelveticaNeue, Helvetica Neue" font-size="11" font-weight="normal" fill="#000000">
                        <tspan x="380.5875" y="66">3. End user answers </tspan>
                        <tspan x="412.878" y="78">the call</tspan>
                    </text>
                    <text id="4.-Plivo-requests-yo" font-family="HelveticaNeue, Helvetica Neue" font-size="11" font-weight="normal" fill="#000000">
                        <tspan x="340.826" y="139">4. Plivo requests your server </tspan>
                        <tspan x="373.727" y="151">for a valid XML </tspan>
                        <tspan x="356.215" y="163">to control the call flow</tspan>
                    </text>
                    <text id="5.-Valid-XML-to-cont" font-family="HelveticaNeue, Helvetica Neue" font-size="11" font-weight="normal" fill="#000000">
                        <tspan x="147.972" y="143">5. Valid XML to control</tspan>
                        <tspan x="164.384" y="155">the ongoing call</tspan>
                    </text>
                </g>
            </g>
        </g>
    </g>
</svg>
